<?xml version="1.0" encoding="UTF-8"?>
<svg id="Layer_1" data-name="Layer 1" xmlns="http://www.w3.org/2000/svg" viewBox="0 0 50 768">
  <defs>
    <style>
      .cls-1 {
        font-family: Pigeon, Pigeon;
        font-size: 25.11px;
      }

      .cls-2 {
        fill: #fff;
      }

      .cls-3 {
        letter-spacing: 0em;
      }

      .cls-4 {
        letter-spacing: 0em;
      }

      .cls-5 {
        letter-spacing: 0em;
      }

      .cls-6 {
        letter-spacing: 0em;
      }
    </style>
  </defs>
  <rect class="cls-2" x="0" width="50" height="768"/>
  <text class="cls-1" transform="translate(31.91 752.17) rotate(-90)"><tspan class="cls-4" x="0" y="0">K</tspan><tspan x="14.09" y="0">รก</tspan><tspan class="cls-6" x="25.64" y="0">r</tspan><tspan x="33.44" y="0">oly Eggly</tspan></text>
  <text class="cls-1" transform="translate(30.91 417.53) rotate(-90)"><tspan x="0" y="0">Contact</tspan></text>
  <text class="cls-1" transform="translate(30.91 114.65) rotate(-90)"><tspan x="0" y="0">Insta</tspan><tspan class="cls-5" x="47.5" y="0">g</tspan><tspan class="cls-3" x="58.3" y="0">r</tspan><tspan x="65.86" y="0">am</tspan></text>
  <g>
    <path class="cls-2" d="M2.5,205h44.83s0,43.85,0,43.85H2.5s0-43.85,0-43.85ZM33.2,229.36v7.31s1.46,0,1.46,0v-7.31h3.41v7.06c0,.3,1,.94,1.46.73l.56-7.72c1.45-.91,6.22,2.02,5.78-1.29l-5.78-.31-1.04-7.49-.98.49v7.06s-3.41,0-3.41,0c-.64-.63,1.37-7.38-1.46-7.31v7.31s-3.9,0-3.9,0l-.49-7.31-1.41.8.43,6.5c-2.64.5-2.92-2.36-4.61-3.92-4.01-3.72-7.85-1.48-12.08-3.03-1.04-.38-3.29-2.31-3.54-2.3-1.9.1.6,5.5,1.22,6.31-1.01.22-3.39.97-3.42,2.2l2.92,1.47-2.91,1.22c-.85,1.16,3.36,2.23,3.36,3.16-1.02.66-2.9,5.24-1.16,5.6.62.13,2.11-1.86,3.61-2.23,4.83-1.18,8.64.63,12.47-3.61,1.53-1.69,1.25-3.6,4.14-2.93.93.87-1.82,7.07.97,6.82l.7-6.85,3.69-.46Z"/>
    <path d="M33.2,229.36l-3.69.46-.7,6.85c-2.8.25-.04-5.95-.97-6.82-2.89-.67-2.61,1.24-4.14,2.93-3.83,4.24-7.64,2.43-12.47,3.61-1.5.37-3,2.35-3.61,2.23-1.74-.36.14-4.95,1.16-5.6,0-.92-4.2-2-3.36-3.16l2.91-1.22-2.92-1.47c.03-1.22,2.41-1.98,3.42-2.2-.62-.81-3.12-6.22-1.22-6.31.25-.01,2.5,1.92,3.54,2.3,4.23,1.54,8.07-.69,12.08,3.03,1.69,1.56,1.97,4.42,4.61,3.92l-.43-6.5,1.41-.8.49,7.31h3.9s0-7.31,0-7.31c2.83-.07.82,6.68,1.46,7.31h3.41s0-7.07,0-7.07l.98-.49,1.04,7.49,5.78.31c.44,3.31-4.34.38-5.78,1.29l-.56,7.72c-.45.21-1.46-.43-1.46-.73v-7.06s-3.41,0-3.41,0v7.31h-1.46v-7.31Z"/>
  </g>
  <g>
    <path class="cls-2" d="M2.4,493.18h44.83s0,43.85,0,43.85H2.4s0-43.85,0-43.85ZM33.1,517.54v7.31s1.46,0,1.46,0v-7.31h3.41v7.06c0,.3,1,.94,1.46.73l.56-7.72c1.45-.91,6.22,2.02,5.78-1.29l-5.78-.31-1.04-7.49-.98.49v7.06s-3.41,0-3.41,0c-.64-.63,1.37-7.38-1.46-7.31v7.31s-3.9,0-3.9,0l-.49-7.31-1.41.8.43,6.5c-2.64.5-2.92-2.36-4.61-3.92-4.01-3.72-7.85-1.48-12.08-3.03-1.04-.38-3.29-2.31-3.54-2.3-1.9.1.6,5.5,1.22,6.31-1.01.22-3.39.97-3.42,2.2l2.92,1.47-2.91,1.22c-.85,1.16,3.36,2.23,3.36,3.16-1.02.66-2.9,5.24-1.16,5.6.62.13,2.11-1.86,3.61-2.23,4.83-1.18,8.64.63,12.47-3.61,1.53-1.69,1.25-3.6,4.14-2.93.93.87-1.82,7.07.97,6.82l.7-6.85,3.69-.46Z"/>
    <path d="M33.1,517.54l-3.69.46-.7,6.85c-2.8.25-.04-5.95-.97-6.82-2.89-.67-2.61,1.24-4.14,2.93-3.83,4.24-7.64,2.43-12.47,3.61-1.5.37-3,2.35-3.61,2.23-1.74-.36.14-4.95,1.16-5.6,0-.92-4.2-2-3.36-3.16l2.91-1.22-2.92-1.47c.03-1.22,2.41-1.98,3.42-2.2-.62-.81-3.12-6.22-1.22-6.31.25-.01,2.5,1.92,3.54,2.3,4.23,1.54,8.07-.69,12.08,3.03,1.69,1.56,1.97,4.42,4.61,3.92l-.43-6.5,1.41-.8.49,7.31h3.9s0-7.31,0-7.31c2.83-.07.82,6.68,1.46,7.31h3.41s0-7.07,0-7.07l.98-.49,1.04,7.49,5.78.31c.44,3.31-4.34.38-5.78,1.29l-.56,7.72c-.45.21-1.46-.43-1.46-.73v-7.06s-3.41,0-3.41,0v7.31h-1.46v-7.31Z"/>
  </g>
</svg>