<?xml version="1.0" encoding="UTF-8"?>
<svg id="Layer_2" data-name="Layer 2" xmlns="http://www.w3.org/2000/svg" viewBox="0 0 768 77">
  <defs>
    <style>
      .cls-1 {
        font-family: Pigeon, Pigeon;
        font-size: 30px;
      }

      .cls-2 {
        fill: #fff;
      }

      .cls-3 {
        letter-spacing: 0em;
      }

      .cls-4 {
        letter-spacing: 0em;
      }

      .cls-5 {
        letter-spacing: 0em;
      }

      .cls-6 {
        letter-spacing: 0em;
      }
    </style>
  </defs>
  <rect class="cls-2" x=".5" y=".5" width="768" height="77"/>
  <text class="cls-1" transform="translate(15.01 47.33)"><tspan class="cls-4" x="0" y="0">K</tspan><tspan x="16.83" y="0">รก</tspan><tspan class="cls-6" x="30.63" y="0">r</tspan><tspan x="39.96" y="0">oly Eggly</tspan></text>
  <text class="cls-1" transform="translate(354.9 48.33)"><tspan x="0" y="0">Contact</tspan></text>
  <text class="cls-1" transform="translate(642.9 47.33)"><tspan x="0" y="0">Insta</tspan><tspan class="cls-5" x="56.76" y="0">g</tspan><tspan class="cls-3" x="69.66" y="0">r</tspan><tspan x="78.69" y="0">am</tspan></text>
  <g>
    <path class="cls-2" d="M287.94,7.5v63.84h-62.44V7.5h62.44ZM253.25,51.22h-10.41v2.08h10.41v4.86h-10.06c-.42,0-1.33,1.43-1.04,2.08l11,.8c1.29,2.06-2.88,8.86,1.83,8.23l.45-8.23,10.66-1.49-.7-1.39h-10.06v-4.86c.9-.9,10.51,1.95,10.41-2.08h-10.41v-5.55s10.4-.69,10.4-.69l-1.14-2-9.26.62c-.71-3.76,3.36-4.16,5.58-6.56,5.29-5.71,2.11-11.18,4.31-17.2.54-1.48,3.29-4.68,3.27-5.04-.14-2.71-7.84.85-8.99,1.74-.31-1.44-1.38-4.82-3.13-4.87l-2.09,4.16-1.74-4.15c-1.65-1.2-3.18,4.78-4.5,4.78-.93-1.45-7.47-4.13-7.98-1.65-.18.88,2.64,3,3.17,5.14,1.69,6.88-.9,12.3,5.15,17.75,2.41,2.18,5.12,1.78,4.17,5.9-1.24,1.32-10.07-2.6-9.71,1.38l9.75,1,.65,5.25Z"/>
    <path d="M253.25,51.22l-.65-5.25-9.75-1c-.36-3.98,8.47-.06,9.71-1.38.95-4.11-1.76-3.72-4.17-5.9-6.04-5.45-3.46-10.87-5.15-17.75-.53-2.14-3.35-4.27-3.17-5.14.51-2.48,7.04.2,7.98,1.65,1.32,0,2.85-5.99,4.5-4.78l1.74,4.15,2.09-4.16c1.74.04,2.82,3.43,3.13,4.87,1.15-.89,8.85-4.45,8.99-1.74.02.36-2.73,3.56-3.27,5.04-2.2,6.02.98,11.49-4.31,17.2-2.23,2.4-6.3,2.8-5.58,6.56l9.26-.62,1.14,2-10.41.69v5.55h10.41c.11,4.03-9.51,1.17-10.41,2.08v4.86h10.06l.7,1.39-10.66,1.49-.45,8.23c-4.71.63-.54-6.17-1.83-8.23l-11-.8c-.3-.65.61-2.08,1.04-2.08h10.06v-4.86h-10.41v-2.08h10.41Z"/>
  </g>
  <g>
    <path class="cls-2" d="M576.77,7.42v63.84h-62.44V7.42h62.44ZM542.08,51.14h-10.41v2.08h10.41v4.86h-10.06c-.42,0-1.33,1.43-1.04,2.08l11,.8c1.29,2.06-2.88,8.86,1.83,8.23l.45-8.23,10.66-1.49-.7-1.39h-10.06v-4.86c.9-.9,10.51,1.95,10.41-2.08h-10.41v-5.55s10.4-.69,10.4-.69l-1.14-2-9.26.62c-.71-3.76,3.36-4.16,5.58-6.56,5.29-5.71,2.11-11.18,4.31-17.2.54-1.48,3.29-4.68,3.27-5.04-.14-2.71-7.84.85-8.99,1.74-.31-1.44-1.38-4.82-3.13-4.87l-2.09,4.16-1.74-4.15c-1.65-1.2-3.18,4.78-4.5,4.78-.93-1.45-7.47-4.13-7.98-1.65-.18.88,2.64,3,3.17,5.14,1.69,6.88-.9,12.3,5.15,17.75,2.41,2.18,5.12,1.78,4.17,5.9-1.24,1.32-10.07-2.6-9.71,1.38l9.75,1,.65,5.25Z"/>
    <path d="M542.08,51.14l-.65-5.25-9.75-1c-.36-3.98,8.47-.06,9.71-1.38.95-4.11-1.76-3.72-4.17-5.9-6.04-5.45-3.46-10.87-5.15-17.75-.53-2.14-3.35-4.27-3.17-5.14.51-2.48,7.04.2,7.98,1.65,1.32,0,2.85-5.99,4.5-4.78l1.74,4.15,2.09-4.16c1.74.04,2.82,3.43,3.13,4.87,1.15-.89,8.85-4.45,8.99-1.74.02.36-2.73,3.56-3.27,5.04-2.2,6.02.98,11.49-4.31,17.2-2.23,2.4-6.3,2.8-5.58,6.56l9.26-.62,1.14,2-10.41.69v5.55h10.41c.11,4.03-9.51,1.17-10.41,2.08v4.86h10.06l.7,1.39-10.66,1.49-.45,8.23c-4.71.63-.54-6.17-1.83-8.23l-11-.8c-.3-.65.61-2.08,1.04-2.08h10.06v-4.86h-10.41v-2.08h10.41Z"/>
  </g>
</svg>