<?xml version="1.0" encoding="UTF-8"?>
<svg xmlns="http://www.w3.org/2000/svg" viewBox="0 0 77 768">
  <defs>
    <style>
      .cls-1 {
        font-family: Pigeon, Pigeon;
        font-size: 30px;
      }

      .cls-2 {
        fill: #fff;
      }

      .cls-3 {
        letter-spacing: 0em;
      }

      .cls-4 {
        letter-spacing: 0em;
      }

      .cls-5 {
        letter-spacing: 0em;
      }

      .cls-6 {
        letter-spacing: 0em;
      }
    </style>
  </defs>
  <g id="Layer_1" data-name="Layer 1">
    <rect class="cls-2" width="77" height="768"/>
  </g>
  <g id="Layer_2" data-name="Layer 2">
    <g>
      <text class="cls-1" transform="translate(46.71 757.13) rotate(-90)"><tspan class="cls-4" x="0" y="0">K</tspan><tspan x="16.83" y="0">รก</tspan><tspan class="cls-6" x="30.63" y="0">r</tspan><tspan x="39.96" y="0">oly Eggly</tspan></text>
      <text class="cls-1" transform="translate(47.71 417.24) rotate(-90)"><tspan x="0" y="0">Contact</tspan></text>
      <text class="cls-1" transform="translate(46.71 129.24) rotate(-90)"><tspan x="0" y="0">Insta</tspan><tspan class="cls-5" x="56.76" y="0">g</tspan><tspan class="cls-3" x="69.66" y="0">r</tspan><tspan x="78.69" y="0">am</tspan></text>
      <g>
        <path class="cls-2" d="M6.88,484.2h63.84s0,62.44,0,62.44H6.88s0-62.44,0-62.44ZM50.59,518.89v10.41s2.08,0,2.08,0v-10.41h4.86v10.06c0,.42,1.43,1.33,2.08,1.04l.8-11c2.06-1.29,8.86,2.88,8.23-1.83l-8.23-.45-1.49-10.66-1.39.7v10.06s-4.86,0-4.86,0c-.9-.9,1.95-10.52-2.08-10.41v10.41s-5.55,0-5.55,0l-.69-10.41-2,1.14.62,9.26c-3.76.71-4.16-3.36-6.56-5.58-5.71-5.29-11.18-2.11-17.2-4.31-1.48-.54-4.68-3.29-5.04-3.27-2.71.14.85,7.84,1.74,8.99-1.44.31-4.82,1.38-4.87,3.13l4.16,2.09-4.15,1.74c-1.2,1.65,4.78,3.18,4.78,4.5-1.45.93-4.13,7.47-1.65,7.98.88.18,3-2.64,5.14-3.17,6.88-1.69,12.3.9,17.75-5.15,2.18-2.41,1.78-5.12,5.9-4.17,1.32,1.24-2.6,10.07,1.38,9.71l1-9.75,5.25-.65Z"/>
        <path d="M50.59,518.89l-5.25.65-1,9.75c-3.98.36-.06-8.47-1.38-9.71-4.11-.95-3.72,1.76-5.9,4.17-5.45,6.04-10.87,3.46-17.75,5.15-2.14.53-4.27,3.35-5.14,3.17-2.48-.51.2-7.04,1.65-7.98,0-1.32-5.99-2.85-4.78-4.5l4.15-1.74-4.16-2.09c.04-1.74,3.43-2.82,4.87-3.13-.89-1.15-4.45-8.85-1.74-8.99.36-.02,3.56,2.73,5.04,3.27,6.02,2.2,11.49-.98,17.2,4.31,2.4,2.23,2.8,6.3,6.56,5.58l-.62-9.26,2-1.14.69,10.41h5.55s0-10.41,0-10.41c4.03-.11,1.17,9.51,2.08,10.41h4.86s0-10.06,0-10.06l1.39-.7,1.49,10.66,8.23.45c.63,4.71-6.17.54-8.23,1.83l-.8,11c-.65.3-2.08-.61-2.08-1.04v-10.06s-4.86,0-4.86,0v10.41h-2.08v-10.41Z"/>
      </g>
      <g>
        <path class="cls-2" d="M6.8,195.37h63.84s0,62.44,0,62.44H6.8s0-62.44,0-62.44ZM50.51,230.06v10.41s2.08,0,2.08,0v-10.41h4.86v10.06c0,.42,1.43,1.33,2.08,1.04l.8-11c2.06-1.29,8.86,2.88,8.23-1.83l-8.23-.45-1.49-10.66-1.39.7v10.06s-4.86,0-4.86,0c-.9-.9,1.95-10.52-2.08-10.41v10.41s-5.55,0-5.55,0l-.69-10.41-2,1.14.62,9.26c-3.76.71-4.16-3.36-6.56-5.58-5.71-5.29-11.18-2.11-17.2-4.31-1.48-.54-4.68-3.29-5.04-3.27-2.71.14.85,7.84,1.74,8.99-1.44.31-4.82,1.38-4.87,3.13l4.16,2.09-4.15,1.74c-1.2,1.65,4.78,3.18,4.78,4.5-1.45.93-4.13,7.47-1.65,7.98.88.18,3-2.64,5.14-3.17,6.88-1.69,12.3.9,17.75-5.15,2.18-2.41,1.78-5.12,5.9-4.17,1.32,1.24-2.6,10.07,1.38,9.71l1-9.75,5.25-.65Z"/>
        <path d="M50.51,230.06l-5.25.65-1,9.75c-3.98.36-.06-8.47-1.38-9.71-4.11-.95-3.72,1.76-5.9,4.17-5.45,6.04-10.87,3.46-17.75,5.15-2.14.53-4.27,3.35-5.14,3.17-2.48-.51.2-7.04,1.65-7.98,0-1.32-5.99-2.85-4.78-4.5l4.15-1.74-4.16-2.09c.04-1.74,3.43-2.82,4.87-3.13-.89-1.15-4.45-8.85-1.74-8.99.36-.02,3.56,2.73,5.04,3.27,6.02,2.2,11.49-.98,17.2,4.31,2.4,2.23,2.8,6.3,6.56,5.58l-.62-9.26,2-1.14.69,10.41h5.55s0-10.41,0-10.41c4.03-.11,1.17,9.51,2.08,10.41h4.86s0-10.06,0-10.06l1.39-.7,1.49,10.66,8.23.45c.63,4.71-6.17.54-8.23,1.83l-.8,11c-.65.3-2.08-.61-2.08-1.04v-10.06s-4.86,0-4.86,0v10.41h-2.08v-10.41Z"/>
      </g>
    </g>
  </g>
</svg>