<?xml version="1.0" encoding="UTF-8"?>
<svg id="Layer_1" data-name="Layer 1" xmlns="http://www.w3.org/2000/svg" viewBox="0 0 768 50">
  <defs>
    <style>
      .cls-1 {
        font-family: Pigeon, Pigeon;
        font-size: 25.11px;
      }

      .cls-2 {
        fill: #fff;
      }

      .cls-3 {
        letter-spacing: 0em;
      }

      .cls-4 {
        letter-spacing: 0em;
      }

      .cls-5 {
        letter-spacing: 0em;
      }

      .cls-6 {
        letter-spacing: 0em;
      }
    </style>
  </defs>
  <rect class="cls-2" x=".36" y="-.2" width="768" height="50"/>
  <text class="cls-1" transform="translate(16.19 31.71)"><tspan class="cls-4" x="0" y="0">K</tspan><tspan x="14.09" y="0">รก</tspan><tspan class="cls-6" x="25.64" y="0">r</tspan><tspan x="33.44" y="0">oly Eggly</tspan></text>
  <text class="cls-1" transform="translate(350.83 30.71)"><tspan x="0" y="0">Contact</tspan></text>
  <text class="cls-1" transform="translate(653.72 30.71)"><tspan x="0" y="0">Insta</tspan><tspan class="cls-5" x="47.5" y="0">g</tspan><tspan class="cls-3" x="58.3" y="0">r</tspan><tspan x="65.86" y="0">am</tspan></text>
  <g>
    <path class="cls-2" d="M563.36,2.3v44.83s-43.85,0-43.85,0V2.3s43.85,0,43.85,0ZM539,33h-7.31s0,1.46,0,1.46h7.31v3.41h-7.06c-.3,0-.94,1-.73,1.46l7.72.56c.91,1.45-2.02,6.22,1.29,5.78l.31-5.78,7.49-1.04-.49-.98h-7.06s0-3.41,0-3.41c.63-.64,7.38,1.37,7.31-1.46h-7.31s0-3.9,0-3.9l7.31-.49-.8-1.41-6.5.43c-.5-2.64,2.36-2.92,3.92-4.61,3.72-4.01,1.48-7.85,3.03-12.08.38-1.04,2.31-3.29,2.3-3.54-.1-1.9-5.5.6-6.31,1.22-.22-1.01-.97-3.39-2.2-3.42l-1.47,2.92-1.22-2.91c-1.16-.85-2.23,3.36-3.16,3.36-.66-1.02-5.24-2.9-5.6-1.16-.13.62,1.86,2.11,2.23,3.61,1.18,4.83-.63,8.64,3.61,12.47,1.69,1.53,3.6,1.25,2.93,4.14-.87.93-7.07-1.82-6.82.97l6.85.7.46,3.69Z"/>
    <path d="M539,33l-.46-3.69-6.85-.7c-.25-2.8,5.95-.04,6.82-.97.67-2.89-1.24-2.61-2.93-4.14-4.24-3.83-2.43-7.64-3.61-12.47-.37-1.5-2.35-3-2.23-3.61.36-1.74,4.95.14,5.6,1.16.92,0,2-4.2,3.16-3.36l1.22,2.91,1.47-2.92c1.22.03,1.98,2.41,2.2,3.42.81-.62,6.22-3.12,6.31-1.22.01.25-1.92,2.5-2.3,3.54-1.54,4.23.69,8.07-3.03,12.08-1.56,1.69-4.42,1.97-3.92,4.61l6.5-.43.8,1.41-7.31.49v3.9s7.31,0,7.31,0c.07,2.83-6.68.82-7.31,1.46v3.41s7.07,0,7.07,0l.49.98-7.49,1.04-.31,5.78c-3.31.44-.38-4.34-1.29-5.78l-7.72-.56c-.21-.45.43-1.46.73-1.46h7.06s0-3.41,0-3.41h-7.31v-1.46h7.31Z"/>
  </g>
  <g>
    <path class="cls-2" d="M275.18,2.19v44.83s-43.85,0-43.85,0V2.19s43.85,0,43.85,0ZM250.82,32.9h-7.31s0,1.46,0,1.46h7.31v3.41h-7.06c-.3,0-.94,1-.73,1.46l7.72.56c.91,1.45-2.02,6.22,1.29,5.78l.31-5.78,7.49-1.04-.49-.98h-7.06s0-3.41,0-3.41c.63-.64,7.38,1.37,7.31-1.46h-7.31s0-3.9,0-3.9l7.31-.49-.8-1.41-6.5.43c-.5-2.64,2.36-2.92,3.92-4.61,3.72-4.01,1.48-7.85,3.03-12.08.38-1.04,2.31-3.29,2.3-3.54-.1-1.9-5.5.6-6.31,1.22-.22-1.01-.97-3.39-2.2-3.42l-1.47,2.92-1.22-2.91c-1.16-.85-2.23,3.36-3.16,3.36-.66-1.02-5.24-2.9-5.6-1.16-.13.62,1.86,2.11,2.23,3.61,1.18,4.83-.63,8.64,3.61,12.47,1.69,1.53,3.6,1.25,2.93,4.14-.87.93-7.07-1.82-6.82.97l6.85.7.46,3.69Z"/>
    <path d="M250.82,32.9l-.46-3.69-6.85-.7c-.25-2.8,5.95-.04,6.82-.97.67-2.89-1.24-2.61-2.93-4.14-4.24-3.83-2.43-7.64-3.61-12.47-.37-1.5-2.35-3-2.23-3.61.36-1.74,4.95.14,5.6,1.16.92,0,2-4.2,3.16-3.36l1.22,2.91,1.47-2.92c1.22.03,1.98,2.41,2.2,3.42.81-.62,6.22-3.12,6.31-1.22.01.25-1.92,2.5-2.3,3.54-1.54,4.23.69,8.07-3.03,12.08-1.56,1.69-4.42,1.97-3.92,4.61l6.5-.43.8,1.41-7.31.49v3.9s7.31,0,7.31,0c.07,2.83-6.68.82-7.31,1.46v3.41s7.07,0,7.07,0l.49.98-7.49,1.04-.31,5.78c-3.31.44-.38-4.34-1.29-5.78l-7.72-.56c-.21-.45.43-1.46.73-1.46h7.06s0-3.41,0-3.41h-7.31v-1.46h7.31Z"/>
  </g>
</svg>